# xmcd CD database file
#
# Track frame offsets:
#	150
#	20331
#	36574
#	84041
#	87780
#	111781
#	144386
#	172828
#	182997
#	198809
#	225879
#
# Disc length: 3357 seconds
#
# Revision: 0
# Processed by: cddbd v1.5.2PL0 Copyright (c) Steve Scherf et al.
# Submitted via: CDex 1.51
#
DISCID=780d1b0b
DTITLE=Gianluca Petrella - Coming Tomorrow - part 1
DYEAR=2009
DGENRE=Jazz
TTITLE0=space is the place
TTITLE1=flexible (the forest version)
TTITLE2=saturn
TTITLE3=speaking:"space is the plce"
TTITLE4=a little bit waltz
TTITLE5=bassism
TTITLE6=we travel the spaceways
TTITLE7=orbital perc.
TTITLE8=three undisciplined satellites
TTITLE9=the second star to the right
TTITLE10=coming tomorrow
EXTD=YEAR: 2009
EXTT0=
EXTT1=
EXTT2=
EXTT3=
EXTT4=
EXTT5=
EXTT6=
EXTT7=
EXTT8=
EXTT9=
EXTT10=
PLAYORDER=
